<svg width="23" height="15" viewBox="0 0 23 15" fill="none" xmlns="http://www.w3.org/2000/svg">
<path d="M21.0035 6.25H1.99653C1.37713 6.25 0.875 6.78166 0.875 7.4375V7.5625C0.875 8.21834 1.37713 8.75 1.99653 8.75H21.0035C21.6229 8.75 22.125 8.21834 22.125 7.5625V7.4375C22.125 6.78166 21.6229 6.25 21.0035 6.25Z" fill="black"/>
<path d="M21.0035 12.5H1.99653C1.37713 12.5 0.875 13.0317 0.875 13.6875V13.8125C0.875 14.4683 1.37713 15 1.99653 15H21.0035C21.6229 15 22.125 14.4683 22.125 13.8125V13.6875C22.125 13.0317 21.6229 12.5 21.0035 12.5Z" fill="black"/>
<path d="M21.0035 0H1.99653C1.37713 0 0.875 0.531662 0.875 1.1875V1.3125C0.875 1.96834 1.37713 2.5 1.99653 2.5H21.0035C21.6229 2.5 22.125 1.96834 22.125 1.3125V1.1875C22.125 0.531662 21.6229 0 21.0035 0Z" fill="black"/>
</svg>
