<svg width="50" height="50" viewBox="0 0 50 50" fill="none" xmlns="http://www.w3.org/2000/svg">
<circle cx="24.5825" cy="24.583" r="24.5825" fill="#232323"/>
<path d="M36.6238 10.0508C31.6691 12.0974 27.0375 14.8979 22.2982 17.3752C17.2357 19.9603 12.281 22.8685 7.21855 25.5613C6.89541 25.7767 7.00312 26.423 7.32626 26.423C10.6653 26.9616 13.8967 27.7155 17.128 28.5772C17.2357 32.2394 17.128 36.0093 17.128 39.6715C17.128 40.2101 17.6666 40.3178 17.882 39.887C19.6054 37.0865 21.3288 34.3937 23.1599 31.7009C25.745 33.4243 28.33 35.1477 30.6997 37.0865C30.9151 37.3019 31.2383 37.0865 31.346 36.7633C32.1 32.3472 32.8539 28.0387 34.0388 23.6225C35.1159 19.314 36.193 14.8979 37.0547 10.4817C37.2701 10.374 36.947 9.94312 36.6238 10.0508ZM20.0362 28.7927C19.9285 28.9004 19.8208 29.0081 19.8208 29.2235C19.7131 29.5466 19.4977 29.9775 19.39 30.5161C18.8514 32.778 18.5283 35.0399 17.9897 37.3019V28.3618C23.0522 23.4071 28.2223 18.5601 33.5002 13.9285C30.3766 17.3752 27.2529 20.822 24.0216 24.3765L21.1134 27.6078C20.5748 28.0387 20.2517 28.3618 20.0362 28.7927ZM34.4696 11.9896C28.6532 17.0521 22.9445 22.33 17.4512 27.7155C14.5429 26.9616 11.6347 26.2076 8.72651 25.669C13.3581 23.2994 17.7743 20.822 22.2982 18.4523C26.3912 16.2981 30.3766 13.9285 34.4696 11.9896ZM18.636 37.1942C19.1745 35.2554 19.4977 33.2088 19.9285 31.1623C20.0362 30.6238 20.144 30.1929 20.2517 29.7621C21.0056 30.3006 21.7596 30.8392 22.5136 31.27C21.2211 33.2088 19.9285 35.2554 18.636 37.1942ZM33.2848 23.6225C32.2077 27.7156 31.4537 31.8086 30.6997 36.0093C27.4684 33.532 24.0216 31.27 20.6825 29.0081C20.6825 29.0081 20.6825 28.9004 20.7902 28.9004C21.2211 28.3618 21.6519 27.931 22.0828 27.5001L24.991 24.2688C28.6532 20.2834 32.3154 16.1904 35.9776 12.2051C35.2236 15.975 34.2542 19.7449 33.2848 23.6225Z" fill="white" stroke="white" stroke-width="0.2"/>
</svg>
