<svg width="160" height="20" viewBox="0 0 160 20" fill="none" xmlns="http://www.w3.org/2000/svg">
<path d="M24.55 19H20.35L20.45 5.425L14.775 19H10.75L5.025 5.425C5.09167 14.025 5.125 18.55 5.125 19H0.925V1.35H7.325L12.8 14.3L18.225 1.35H24.55V19ZM47.8379 1.35L39.4129 12.375V19H35.0129V12.375L26.6129 1.35H32.0379L37.2379 8.725L42.4629 1.35H47.8379ZM57.8258 14.575L61.8508 13.55C62.7174 15.3833 64.7091 16.3 67.8258 16.3C68.1758 16.3 68.5341 16.2833 68.9008 16.25C69.2674 16.2 69.7341 16.1083 70.3008 15.975C70.8674 15.8417 71.3258 15.6083 71.6758 15.275C72.0424 14.925 72.2258 14.4917 72.2258 13.975C72.2258 13.7417 72.1841 13.5333 72.1008 13.35C72.0341 13.1667 71.8924 13.0083 71.6758 12.875C71.4758 12.7417 71.2841 12.6333 71.1008 12.55C70.9341 12.4667 70.6674 12.3833 70.3008 12.3C69.9341 12.2167 69.6341 12.1583 69.4008 12.125C69.1841 12.075 68.8341 12.0167 68.3508 11.95C66.9508 11.7333 65.9758 11.5833 65.4258 11.5C64.8758 11.4 64.2674 11.2667 63.6008 11.1C62.9341 10.9333 62.3758 10.7417 61.9258 10.525C60.0758 9.65833 59.1508 8.25833 59.1508 6.325C59.1508 5.075 59.5424 4.025 60.3258 3.175C61.1091 2.30833 62.1008 1.7 63.3008 1.35C64.5008 0.983332 65.8674 0.799999 67.4008 0.799999C71.9841 0.799999 75.0674 2.20833 76.6508 5.025L72.4758 6.075C71.7258 4.65833 69.9924 3.95 67.2758 3.95C64.7091 3.95 63.4258 4.63333 63.4258 6C63.4258 6.71667 63.8924 7.225 64.8258 7.525C65.2258 7.64167 67.1174 8 70.5008 8.6C71.1174 8.71667 71.6258 8.81667 72.0258 8.9C72.4258 8.98333 72.9341 9.15 73.5508 9.4C74.1841 9.65 74.6841 9.94167 75.0508 10.275C75.4174 10.6083 75.7424 11.0667 76.0258 11.65C76.3091 12.2167 76.4508 12.875 76.4508 13.625C76.4508 17.575 73.4591 19.55 67.4758 19.55C64.9758 19.55 62.9591 19.1417 61.4258 18.325C59.9091 17.5083 58.7091 16.2583 57.8258 14.575ZM80.051 1.35H91.026C92.4093 1.35 93.576 1.50833 94.526 1.825C95.4926 2.125 96.2593 2.75833 96.826 3.725C97.3426 4.55833 97.601 5.60833 97.601 6.875C97.601 8.375 97.2093 9.575 96.426 10.475C95.7426 11.2583 94.9593 11.7667 94.076 12C93.1926 12.2333 92.0176 12.35 90.551 12.35H84.401V19H80.051V1.35ZM84.401 4.4V9.25H89.826C90.8593 9.25 91.576 9.16667 91.976 9C92.7926 8.66667 93.201 7.95833 93.201 6.875C93.201 6.225 93.0176 5.65 92.651 5.15C92.2843 4.65 91.6926 4.4 90.876 4.4H84.401ZM117.725 19H112.775L111.275 15.675H102.225L100.725 19H95.9L104.425 1.35H109.2L117.725 19ZM109.85 12.55L106.775 5.65L103.65 12.55H109.85ZM135.375 13H140C139.883 13.5 139.7 14.0083 139.45 14.525C139.217 15.0417 138.825 15.6167 138.275 16.25C137.742 16.8833 137.1 17.4417 136.35 17.925C135.617 18.3917 134.642 18.7833 133.425 19.1C132.225 19.4333 130.892 19.6 129.425 19.6C126.192 19.6 123.617 18.7833 121.7 17.15C119.783 15.5 118.825 13.1667 118.825 10.15C118.825 7.4 119.75 5.15833 121.6 3.425C123.467 1.675 126.158 0.799999 129.675 0.799999C132.308 0.799999 134.508 1.34167 136.275 2.425C138.042 3.49167 139.217 4.78333 139.8 6.3L134.975 6.9C133.725 5 131.958 4.05 129.675 4.05C128.558 4.05 127.575 4.24167 126.725 4.625C125.875 5.00833 125.217 5.51667 124.75 6.15C124.3 6.78333 123.958 7.44167 123.725 8.125C123.508 8.80833 123.4 9.5 123.4 10.2C123.4 11.9333 123.992 13.3917 125.175 14.575C126.375 15.7583 127.917 16.35 129.8 16.35C132.483 16.35 134.342 15.2333 135.375 13ZM159.574 19H142.624V1.35H159.074V4.525H147.049V8.5H158.674V11.65H147.049V15.85H159.574V19Z" fill="#232323"/>
</svg>
