<svg width="50" height="50" viewBox="0 0 50 50" fill="none" xmlns="http://www.w3.org/2000/svg">
<circle cx="25.2524" cy="24.5869" r="24.5825" fill="#232323"/>
<path fill-rule="evenodd" clip-rule="evenodd" d="M20.4317 15.2749C20.3857 15.2794 20.3406 15.2891 20.2968 15.3039C18.9255 15.725 17.9545 16.4697 17.4301 17.4397C16.9057 18.4095 16.8393 19.5463 17.0646 20.7009C17.5149 23.0105 19.1128 25.4928 21.1339 27.5599C23.155 29.6272 25.5921 31.282 27.9165 31.7641C29.0784 32.0051 30.2357 31.9413 31.2355 31.4177C32.2353 30.8942 33.0309 29.9178 33.525 28.522C33.6188 28.2525 33.5153 27.954 33.275 27.8005L28.8881 25.049L28.8785 25.0395C28.8568 25.0252 28.8344 25.0125 28.811 25.0009C28.7466 24.9592 28.6749 24.9298 28.5995 24.9144H28.5802C28.5643 24.9107 28.5482 24.9075 28.5321 24.9049H28.5224C28.4198 24.8989 28.3173 24.9186 28.2244 24.9627C28.1904 24.9788 28.1582 24.9981 28.1282 25.0202C28.1082 25.032 28.0889 25.0449 28.0704 25.0589C28.0637 25.0683 28.0573 25.078 28.0511 25.0877C28.027 25.1085 28.0045 25.131 27.9838 25.1551L27.0218 26.1268C25.2775 25.2487 23.9365 23.7769 22.7311 21.788L23.6163 20.9125H23.6161C23.633 20.8974 23.6491 20.8813 23.6642 20.8644C23.6777 20.8521 23.6906 20.8392 23.7028 20.8259V20.8165C23.7161 20.8042 23.729 20.7914 23.7413 20.7778V20.7684C23.7479 20.7589 23.7544 20.7493 23.7604 20.7394C23.767 20.7332 23.7735 20.7269 23.7797 20.7203C23.7868 20.7046 23.7932 20.6885 23.799 20.6722V20.6627C23.8023 20.6563 23.8055 20.6501 23.8085 20.6436C23.8154 20.6309 23.8218 20.6183 23.8278 20.6052C23.8317 20.5893 23.8349 20.5732 23.8375 20.5571V20.5474C23.8415 20.5285 23.8448 20.5092 23.8471 20.4899V20.4802C23.8478 20.4641 23.8478 20.4482 23.8471 20.4321V20.4227C23.8478 20.4065 23.8478 20.3904 23.8471 20.3745V20.3554C23.8446 20.3393 23.8413 20.3232 23.8375 20.3073V20.2977C23.8278 20.2614 23.8149 20.2259 23.799 20.192V20.1824C23.7879 20.1559 23.775 20.1302 23.7604 20.1055L23.7507 20.0864H23.7509C23.7477 20.0831 23.7445 20.0799 23.7413 20.0767L20.9995 15.5745C20.8915 15.3948 20.6993 15.2823 20.4895 15.2762C20.4704 15.2754 20.451 15.2754 20.4319 15.2762L20.4317 15.2749ZM20.2105 16.6314L22.4519 20.3352L21.5186 21.2588C21.3234 21.4558 21.2839 21.7592 21.4224 21.9995C22.8466 24.4655 24.5338 26.384 26.8963 27.4253C27.128 27.5284 27.3993 27.4788 27.5794 27.3003L28.5702 26.3095L32.1875 28.5703C31.787 29.4718 31.2648 30.0084 30.6676 30.3213C29.9757 30.6836 29.1307 30.7521 28.1663 30.5522C26.2375 30.1521 23.9078 28.6364 22.0093 26.6944C20.1108 24.7525 18.6416 22.391 18.2671 20.4697C18.0798 19.5092 18.1625 18.682 18.5173 18.0262C18.8226 17.4615 19.3414 16.9781 20.2105 16.6313L20.2105 16.6314Z" fill="white"/>
<path fill-rule="evenodd" clip-rule="evenodd" d="M25.2524 10.0387C17.7805 10.0387 11.707 16.1094 11.707 23.5841C11.707 26.3003 12.5119 28.8392 13.9311 31.017L12.4163 36.0722C12.3502 36.2933 12.4133 36.533 12.5799 36.693C12.7466 36.853 12.9886 36.906 13.207 36.8308L18.155 35.1233C20.2152 36.395 22.6516 37.1293 25.2526 37.1293C32.7273 37.1293 38.7979 31.0587 38.7979 23.584C38.7979 16.1093 32.7273 10.0386 25.2526 10.0386L25.2524 10.0387ZM25.2524 11.27C32.0619 11.27 37.5664 16.7744 37.5664 23.584C37.5664 30.3935 32.0619 35.898 25.2524 35.898C22.784 35.898 20.4882 35.1738 18.5682 33.9284V33.9286C18.4093 33.8253 18.2115 33.8013 18.0322 33.8631L13.9404 35.2752L15.1934 31.0939C15.2466 30.9161 15.2168 30.7237 15.1124 30.5703C13.7213 28.5292 12.9382 26.1521 12.9382 23.5838C12.9382 16.7743 18.4459 11.2698 25.2522 11.2698L25.2524 11.27Z" fill="white"/>
</svg>
